<svg width="800" height="600" viewBox="0 0 680 460" xmlns="http://www.w3.org/2000/svg" role="img">
  <title>Dashboard FreelancerPT</title>
  <desc>Freelancer a gerir impostos com cofre fiscal digital, prazos e faturas organizadas</desc>
  <rect width="680" height="460" fill="#F8FAFC"/>
  <ellipse cx="560" cy="80" rx="120" ry="90" fill="#1F4E79" opacity="0.07"/>
  <ellipse cx="80" cy="380" rx="100" ry="70" fill="#1E7145" opacity="0.07"/>
  <ellipse cx="620" cy="380" rx="80" ry="60" fill="#7C3AED" opacity="0.06"/>
  <rect x="60" y="40" width="380" height="240" rx="20" fill="white" stroke="#E2E8F0" stroke-width="1.5"/>
  <rect x="60" y="40" width="380" height="52" rx="20" fill="#0F1F33"/>
  <rect x="60" y="72" width="380" height="20" fill="#0F1F33"/>
  <circle cx="88" cy="66" r="5" fill="#BF4700" opacity="0.8"/>
  <circle cx="104" cy="66" r="5" fill="#F59E0B" opacity="0.8"/>
  <circle cx="120" cy="66" r="5" fill="#1E7145" opacity="0.8"/>
  <rect x="145" y="59" width="40" height="14" rx="4" fill="white" opacity="0.12"/>
  <rect x="193" y="59" width="40" height="14" rx="4" fill="white" opacity="0.08"/>
  <rect x="241" y="59" width="40" height="14" rx="4" fill="white" opacity="0.08"/>
  <rect x="60" y="92" width="70" height="188" fill="#F8FAFC"/>
  <rect x="72" y="108" width="46" height="8" rx="4" fill="#1F4E79" opacity="0.9"/>
  <rect x="72" y="126" width="38" height="6" rx="3" fill="#94A3B8" opacity="0.6"/>
  <rect x="72" y="142" width="42" height="6" rx="3" fill="#94A3B8" opacity="0.6"/>
  <rect x="72" y="158" width="36" height="6" rx="3" fill="#94A3B8" opacity="0.6"/>
  <rect x="72" y="174" width="40" height="6" rx="3" fill="#94A3B8" opacity="0.6"/>
  <rect x="146" y="105" width="80" height="80" rx="12" fill="#EFF4FB"/>
  <circle cx="186" cy="140" r="24" fill="none" stroke="#E2E8F0" stroke-width="5"/>
  <circle cx="186" cy="140" r="24" fill="none" stroke="#1F4E79" stroke-width="5" stroke-dasharray="90 61" stroke-linecap="round" transform="rotate(-90 186 140)"/>
  <text x="186" y="144" text-anchor="middle" font-family="system-ui,sans-serif" font-size="9" font-weight="600" fill="#1F4E79">IVA</text>
  <text x="186" y="192" text-anchor="middle" font-family="system-ui,sans-serif" font-size="8" fill="#64748B">644</text>
  <rect x="237" y="105" width="80" height="80" rx="12" fill="#F0FDF4"/>
  <circle cx="277" cy="140" r="24" fill="none" stroke="#E2E8F0" stroke-width="5"/>
  <circle cx="277" cy="140" r="24" fill="none" stroke="#1E7145" stroke-width="5" stroke-dasharray="60 91" stroke-linecap="round" transform="rotate(-90 277 140)"/>
  <text x="277" y="144" text-anchor="middle" font-family="system-ui,sans-serif" font-size="9" font-weight="600" fill="#1E7145">IRS</text>
  <text x="277" y="192" text-anchor="middle" font-family="system-ui,sans-serif" font-size="8" fill="#64748B">462</text>
  <rect x="328" y="105" width="80" height="80" rx="12" fill="#F5F3FF"/>
  <circle cx="368" cy="140" r="24" fill="none" stroke="#E2E8F0" stroke-width="5"/>
  <circle cx="368" cy="140" r="24" fill="none" stroke="#7C3AED" stroke-width="5" stroke-dasharray="45 106" stroke-linecap="round" transform="rotate(-90 368 140)"/>
  <text x="368" y="144" text-anchor="middle" font-family="system-ui,sans-serif" font-size="9" font-weight="600" fill="#7C3AED">SS</text>
  <text x="368" y="192" text-anchor="middle" font-family="system-ui,sans-serif" font-size="8" fill="#64748B">419</text>
  <rect x="146" y="205" width="274" height="8" rx="4" fill="#E2E8F0"/>
  <rect x="146" y="205" width="130" height="8" rx="4" fill="#1F4E79"/>
  <rect x="146" y="222" width="90" height="8" rx="3" fill="#E2E8F0" opacity="0.7"/>
  <rect x="310" y="222" width="60" height="8" rx="3" fill="#E2E8F0" opacity="0.5"/>
  <rect x="380" y="222" width="40" height="8" rx="3" fill="#1E7145" opacity="0.4"/>
  <rect x="465" y="30" width="195" height="145" rx="16" fill="white" stroke="#E2E8F0" stroke-width="1.5"/>
  <rect x="480" y="50" width="80" height="8" rx="3" fill="#0F1F33" opacity="0.7"/>
  <rect x="480" y="74" width="10" height="10" rx="2" fill="#7C3AED"/>
  <rect x="496" y="75" width="70" height="6" rx="2" fill="#0F1F33" opacity="0.6"/>
  <rect x="496" y="85" width="40" height="5" rx="2" fill="#64748B" opacity="0.5"/>
  <rect x="576" y="75" width="28" height="6" rx="3" fill="#BF4700" opacity="0.15"/>
  <rect x="578" y="76" width="24" height="3" rx="1" fill="#BF4700" opacity="0.8"/>
  <rect x="480" y="102" width="10" height="10" rx="2" fill="#1F4E79"/>
  <rect x="496" y="103" width="80" height="6" rx="2" fill="#0F1F33" opacity="0.5"/>
  <rect x="496" y="113" width="50" height="5" rx="2" fill="#64748B" opacity="0.4"/>
  <rect x="576" y="103" width="28" height="6" rx="3" fill="#1F4E79" opacity="0.1"/>
  <rect x="480" y="130" width="10" height="10" rx="2" fill="#1E7145"/>
  <rect x="496" y="131" width="70" height="6" rx="2" fill="#0F1F33" opacity="0.4"/>
  <rect x="496" y="141" width="45" height="5" rx="2" fill="#64748B" opacity="0.35"/>
  <rect x="576" y="131" width="28" height="6" rx="3" fill="#1E7145" opacity="0.1"/>
  <rect x="465" y="195" width="195" height="100" rx="16" fill="white" stroke="#E2E8F0" stroke-width="1.5"/>
  <rect x="480" y="210" width="60" height="7" rx="3" fill="#0F1F33" opacity="0.6"/>
  <rect x="480" y="228" width="100" height="6" rx="2" fill="#E2E8F0"/>
  <rect x="626" y="228" width="20" height="6" rx="2" fill="#1F4E79" opacity="0.4"/>
  <line x1="480" y1="242" x2="650" y2="242" stroke="#F1F5F9" stroke-width="1"/>
  <rect x="480" y="249" width="80" height="6" rx="2" fill="#E2E8F0"/>
  <rect x="626" y="249" width="20" height="6" rx="2" fill="#1F4E79" opacity="0.3"/>
  <line x1="480" y1="263" x2="650" y2="263" stroke="#F1F5F9" stroke-width="1"/>
  <rect x="480" y="270" width="90" height="6" rx="2" fill="#E2E8F0"/>
  <rect x="626" y="270" width="20" height="6" rx="2" fill="#1F4E79" opacity="0.25"/>
  <rect x="130" y="290" width="160" height="44" rx="22" fill="#1F4E79"/>
  <circle cx="158" cy="312" r="14" fill="white" opacity="0.15"/>
  <text x="158" y="316" text-anchor="middle" font-family="system-ui,sans-serif" font-size="13" fill="white">+</text>
  <rect x="178" y="305" width="95" height="7" rx="3" fill="white" opacity="0.9"/>
  <rect x="178" y="318" width="70" height="5" rx="2" fill="white" opacity="0.5"/>
  <rect x="310" y="285" width="140" height="38" rx="10" fill="#FEF3C7" stroke="#F59E0B" stroke-width="1"/>
  <circle cx="326" cy="304" r="8" fill="#F59E0B" opacity="0.2"/>
  <text x="327" y="307" text-anchor="middle" font-family="system-ui,sans-serif" font-size="10" fill="#92400E">!</text>
  <rect x="342" y="296" width="90" height="6" rx="2" fill="#92400E" opacity="0.5"/>
  <rect x="342" y="308" width="70" height="5" rx="2" fill="#92400E" opacity="0.35"/>
  <circle cx="35" cy="120" r="18" fill="#F59E0B" opacity="0.15"/>
  <circle cx="35" cy="120" r="12" fill="#F59E0B" opacity="0.2"/>
  <text x="35" y="124" text-anchor="middle" font-family="system-ui,sans-serif" font-size="11" fill="#92400E" opacity="0.8">EUR</text>
  <circle cx="648" cy="230" r="14" fill="#1E7145" opacity="0.15"/>
  <circle cx="648" cy="230" r="9" fill="#1E7145" opacity="0.2"/>
  <rect x="30" y="330" width="36" height="36" rx="10" fill="#1E7145" opacity="0.12"/>
  <circle cx="430" cy="410" r="3" fill="#1F4E79" opacity="0.12"/>
  <circle cx="445" cy="410" r="3" fill="#1F4E79" opacity="0.12"/>
  <circle cx="460" cy="410" r="3" fill="#1F4E79" opacity="0.12"/>
  <circle cx="430" cy="425" r="3" fill="#1F4E79" opacity="0.08"/>
  <circle cx="445" cy="425" r="3" fill="#1F4E79" opacity="0.08"/>
  <circle cx="460" cy="425" r="3" fill="#1F4E79" opacity="0.08"/>
</svg>